<svg id="Group_5098" data-name="Group 5098" xmlns="http://www.w3.org/2000/svg" width="391.793" height="567.902" viewBox="0 0 391.793 567.902"><defs><clipPath id="clip-path"><path id="Path_10891" data-name="Path 10891" d="M391.609 0 0 465.546v101.878h391.609z" fill="#ffeded" stroke="#707070" stroke-width="1"/></clipPath><clipPath id="clip-path-2"><path id="Path_10921" data-name="Path 10921" d="M389.828 0H0v470.7L389.828 18.682z" fill="none" stroke="#707070" stroke-width="1"/></clipPath></defs><g id="Group_5096" data-name="Group 5096"><g id="Group_5095" data-name="Group 5095" transform="translate(.184)"><g id="Mask_Group_78" data-name="Mask Group 78" clip-path="url(#clip-path)"><path id="Path_10896" data-name="Path 10896" d="M0 0h390.565v94.878H0z" transform="translate(-.184 474.757)" fill="#e5b4a5"/><path id="Rectangle_4323" data-name="Rectangle 4323" d="M0 0h119.045v1.319a30 30 0 0 1-30 30H30a30 30 0 0 1-30-30V0z" transform="translate(-15.844 474.757)" fill="#fdf6f4"/><rect id="Rectangle_4324" data-name="Rectangle 4324" width="94.878" height="24.871" rx="12.435" transform="translate(264.023 218.327)" fill="#bee2ed"/><rect id="Rectangle_4327" data-name="Rectangle 4327" width="79.218" height="21.186" rx="10.593" transform="translate(305.474 203.589)" fill="#bee2ed"/><rect id="Rectangle_4326" data-name="Rectangle 4326" width="72.77" height="19.344" rx="9.672" transform="translate(273.596 132.092)" fill="#bee2ed"/><rect id="Rectangle_4325" data-name="Rectangle 4325" width="70.928" height="18.423" rx="9.211" transform="translate(302.872 490.417)" fill="#fdf6f4"/><rect id="Rectangle_4328" data-name="Rectangle 4328" width="95.638" height="24.483" rx="12.242" transform="translate(208.544 535.019)" fill="#fdf6f4"/><path id="Line_485" data-name="Line 485" fill="none" stroke="#000" stroke-linecap="round" stroke-linejoin="round" stroke-width="2" d="M354.58 386.099v11.752"/><path id="Stroke_17" data-name="Stroke 17" d="M180.992 901.108H60.531l8.183 18a5.654 5.654 0 0 1-5.692 5.616h-1.348v110.4h126.361V924.568h-1.357a5.664 5.664 0 0 1-5.686-5.624z" transform="translate(72.16 -560.381)" fill="#f5dfd8"/><path id="Stroke_65-2" data-name="Stroke 65-2" d="M111.043 1022.908h44.034v-60.832l-5.4-4.294c.994-41.82-38.632-50.129-38.632-50.129s-39.629 8.31-38.632 50.129l-5.4 4.294v60.832z" transform="translate(82.142 -547.782)" fill="#fff"/><path id="Stroke_11-2" data-name="Stroke 11-2" d="M15.952 1012.444h103.386V912.89H15.952z" transform="translate(-16.136 -537.702)" fill="#f5dfd8"/><path id="Stroke_13-2" data-name="Stroke 13-2" d="M51.507 474.742h28.72v-44.465l-3.53-3.141c.658-30.571-25.189-36.637-25.189-36.637s-25.85 6.066-25.2 36.637l-3.517 3.141v44.461z" fill="none" stroke="#fff" stroke-linecap="round" stroke-linejoin="round" stroke-width="3"/><path id="Stroke_21" data-name="Stroke 21" d="M66.367 889.325v3.237a5.5 5.5 0 0 1-4.4 5.359l-.19.187v25.68h61.264v-34.463z" transform="translate(72.062 -583.061)" fill="#fdf6f4"/><path id="Stroke_23" data-name="Stroke 23" d="m139.446 892.607-.059-.056v-3.226H82.718v34.464h61.264v-25.657l-.322-.4a5.471 5.471 0 0 1-4.214-5.125z" transform="translate(112.38 -583.061)" fill="#fdf6f4"/><path id="Stroke_29-3" data-name="Stroke 29-3" d="M81.931 918.748H51.3v-26.8h30.631z" transform="translate(51.902 -578.02)" fill="#ffeae1"/><path id="Stroke_31-2" data-name="Stroke 31-2" d="M81.931 1020.005H51.3V908.962h30.631z" transform="translate(51.902 -545.263)" fill="#ffeae1"/><path id="Stroke_44" data-name="Stroke 44" d="M186.082 912v-5.4a5.6 5.6 0 0 1 5.63-5.575H197v-23.482H59.154v23.63h5.291a5.6 5.6 0 0 1 5.625 5.572V912z" transform="translate(67.022 -605.74)" fill="#f5dfd8"/><path id="Stroke_46" data-name="Stroke 46" d="M121.6 900.518h-15.317l.018-22.975h15.3z" transform="translate(157.74 -605.74)" fill="#ffeae1"/><path id="Stroke_48" data-name="Stroke 48" d="M121.6 883.6h-15.317l.018-19.143h15.3z" transform="translate(157.74 -630.939)" fill="#ffeae1"/><path id="Stroke_50" data-name="Stroke 50" d="M134.3 918.748h-30.636v-26.8h30.612z" transform="translate(152.699 -578.02)" fill="#ffeae1"/><path id="Stroke_52" data-name="Stroke 52" d="M131.778 1020.005h-26.8V908.962h26.8z" transform="translate(155.22 -545.263)" fill="#ffeae1"/><path id="Stroke_54" data-name="Stroke 54" d="M127.981 873.184A15.9 15.9 0 0 0 116.5 856.6a15.9 15.9 0 0 0-11.486 16.587v.181c0 3.422 2.088 6.207 4.671 6.207H123.3c2.583 0 4.683-2.785 4.683-6.207z" transform="translate(155.185 -646.059)" fill="#e5b4a5"/><path id="Stroke_56" data-name="Stroke 56" d="M271.679 210.29v-13.4" fill="none" stroke="#e5b4a5" stroke-linecap="round" stroke-linejoin="round" stroke-width="4"/><path id="Stroke_59-3" data-name="Stroke 59-3" d="M130.474 884.083a5.741 5.741 0 0 1-5.326 6.06H109a5.745 5.745 0 0 1-5.326-6.06v-7.029A5.746 5.746 0 0 1 109 871h16.151a5.742 5.742 0 0 1 5.326 6.057z" transform="translate(154.608 -618.341)" fill="#e5b4a5"/><path id="Stroke_67-2" data-name="Stroke 67-2" d="M114.138 1012.444h103.383V912.89H114.138z" transform="translate(172.86 -537.702)" fill="#f5dfd8"/><path id="Stroke_69" data-name="Stroke 69" d="M114.138 894.562v18.628h1.319a5.3 5.3 0 0 1 5.572 5.01v3.165h96.492v-26.8z" transform="translate(172.86 -572.981)" fill="#f5dfd8"/><path id="Stroke_71-2" data-name="Stroke 71-2" d="M121.029 903.726a18.936 18.936 0 0 1 0 2.937v6.367a5.739 5.739 0 0 1-5.522 5.955h-1.369v11.545h103.383v-26.8z" transform="translate(172.86 -555.341)" fill="#fdf6f4"/><path id="Stroke_71-2-2" data-name="Stroke 71-2" d="M121.029 903.726a18.936 18.936 0 0 1 0 2.937v6.367a5.739 5.739 0 0 1-5.522 5.955h-1.369v11.545h103.383v-26.8z" transform="translate(-114.537 -555.341)" fill="#fdf6f4"/><path id="Fill_74-2" data-name="Fill 74-2" d="M338.689 474.742H309.97v-44.465l3.53-3.141c-.658-30.571 25.189-36.637 25.189-36.637s25.85 6.066 25.2 36.637l3.519 3.141v44.461z" fill="none" stroke="#fff" stroke-linecap="round" stroke-linejoin="round" stroke-width="4"/><path id="Stroke_63-2" data-name="Stroke 63-2" d="M147.853 920.007a5.906 5.906 0 0 1-5.908 5.914h-33.682a5.914 5.914 0 0 1-5.908-5.914v-12.985a5.907 5.907 0 0 1 5.9-5.914h33.692a5.9 5.9 0 0 1 5.908 5.9v13z" transform="translate(146.576 -561.301)" fill="#e5b4a5"/><path id="Stroke_63-2-2" data-name="Stroke 63-2" d="M147.853 920.007a5.906 5.906 0 0 1-5.908 5.914h-33.682a5.914 5.914 0 0 1-5.908-5.914v-12.985a5.907 5.907 0 0 1 5.9-5.914h33.692a5.9 5.9 0 0 1 5.908 5.9v13z" transform="translate(-6.586 -561.301)" fill="#e5b4a5"/><path id="Fill_18" data-name="Fill 18" d="M143.718 900.152a5.972 5.972 0 0 1-6.006 5.927h-29.367a5.963 5.963 0 0 1-5.99-5.927v-8.827a5.956 5.956 0 0 1 5.987-5.927h29.373a5.964 5.964 0 0 1 6 5.927z" transform="translate(148.644 -590.62)" fill="#e5b4a5"/></g></g><g id="Group_79" data-name="Group 79" clip-path="url(#clip-path-2)"><path id="Path_10892" data-name="Path 10892" d="M-969 2319.755v-137.028h194.914L-969 2366.51z" transform="translate(969 -1886.963)" fill="#c3e0c5"/><g id="Group_5092" data-name="Group 5092" transform="translate(216.587 77.826)"><path id="Line_486" data-name="Line 486" fill="none" stroke="#000" stroke-linecap="round" stroke-linejoin="round" stroke-width="2" d="M46.483 202.68v15.259"/><path id="Path_10893" data-name="Path 10893" d="M596.487 713.022a152.836 152.836 0 0 1-11.967-60.154V643.2a26.8 26.8 0 0 0-53.6 0v7.961a151.5 151.5 0 0 1-12.472 61.086 95.284 95.284 0 0 0-7.628 38.155c0 38.391 20.811 69.514 46.483 69.514s46.483-31.123 46.483-69.514a95.606 95.606 0 0 0-7.3-37.385" transform="translate(-510.818 -616.404)" fill="#a5c6ad"/><path id="Path_10894" data-name="Path 10894" d="M510.818 750.916c0 38.391 20.81 69.514 46.483 69.514s46.483-31.123 46.483-69.514a95.609 95.609 0 0 0-7.3-37.385 152.833 152.833 0 0 1-11.968-60.154v-9.664a26.75 26.75 0 0 0-9.973-20.861s-26.877 17.511-26.04 59.387-37.689 68.677-37.689 68.677" transform="translate(-510.818 -616.912)" fill="#7ba888"/></g><g id="Group_5094" data-name="Group 5094" transform="translate(-37.121 77.826)"><path id="Line_486-2" data-name="Line 486" fill="none" stroke="#000" stroke-linecap="round" stroke-linejoin="round" stroke-width="2" d="M46.483 202.68v15.259"/><path id="Path_10893-2" data-name="Path 10893" d="M596.487 713.022a152.836 152.836 0 0 1-11.967-60.154V643.2a26.8 26.8 0 0 0-53.6 0v7.961a151.5 151.5 0 0 1-12.472 61.086 95.284 95.284 0 0 0-7.628 38.155c0 38.391 20.811 69.514 46.483 69.514s46.483-31.123 46.483-69.514a95.606 95.606 0 0 0-7.3-37.385" transform="translate(-510.818 -616.404)" fill="#a5c6ad"/><path id="Path_10894-2" data-name="Path 10894" d="M510.818 750.916c0 38.391 20.81 69.514 46.483 69.514s46.483-31.123 46.483-69.514a95.609 95.609 0 0 0-7.3-37.385 152.833 152.833 0 0 1-11.968-60.154v-9.664a26.75 26.75 0 0 0-9.973-20.861s-26.877 17.511-26.04 59.387-37.689 68.677-37.689 68.677" transform="translate(-510.818 -616.912)" fill="#7ba888"/></g><path id="Stroke_7-2" data-name="Stroke 7-2" d="M565.67 711.6h23.524v29.7H417.969v-29.7H441.5v-18c12.316-.256 35.057-1.567 44.606-6.294 1.3-.646 2.476-1.445 3.672-2.19l.1-.053a31.229 31.229 0 0 1 27.395 0l.092.053c1.192.745 2.373 1.544 3.676 2.19 9.546 4.739 32.29 6.037 44.614 6.289V711.6z" transform="translate(-372.607 -679.658)" fill="#dcf5ff"/><path id="Fill_9-2" data-name="Fill 9-2" d="M76.812 135.021a10.484 10.484 0 1 1-10.486-10.482 10.482 10.482 0 0 1 10.486 10.482" fill="none" stroke="#2a2250" stroke-linecap="round" stroke-linejoin="round" stroke-width="4"/><path id="Stroke_11-4" data-name="Stroke 11-4" d="M76.812 135.021a10.484 10.484 0 1 1-10.486-10.482 10.482 10.482 0 0 1 10.486 10.482z" fill="none" stroke="#2a2250" stroke-linecap="round" stroke-linejoin="round" stroke-width="4"/><path id="Fill_13" data-name="Fill 13" d="M199.117 135.021a10.484 10.484 0 1 1-10.486-10.482 10.482 10.482 0 0 1 10.486 10.482" fill="none" stroke="#2a2250" stroke-linecap="round" stroke-linejoin="round" stroke-width="4"/><path id="Stroke_15-2" data-name="Stroke 15-2" d="M199.117 135.021a10.484 10.484 0 1 1-10.486-10.482 10.482 10.482 0 0 1 10.486 10.482z" fill="none" stroke="#2a2250" stroke-linecap="round" stroke-linejoin="round" stroke-width="4"/><path id="Stroke_19-3" data-name="Stroke 19-3" d="M622.146 710.533a4.624 4.624 0 0 1-4.857 4.357H417.335a4.628 4.628 0 0 1-4.853-4.357V701.8a4.629 4.629 0 0 1 4.853-4.365h199.953a4.628 4.628 0 0 1 4.857 4.365z" transform="translate(-388.087 -635.793)" fill="#bee2ed"/><path id="Stroke_23-3" data-name="Stroke 23-3" d="M629.5 701.993a5.083 5.083 0 0 1 4.8 5.331v13.795a5.078 5.078 0 0 1-4.8 5.334H415.476a5.091 5.091 0 0 1-4.819-5.334v-13.795a5.1 5.1 0 0 1 4.819-5.331" transform="translate(-393.252 -622.882)" fill="#dcf5ff"/><path id="Stroke_37-3" data-name="Stroke 37-3" d="M482.37 833.772h-69.888V733.177h210.5v100.595h-69.089" transform="translate(-388.087 -538.007)" fill="#bee2ed"/><path id="Stroke_3-2" data-name="Stroke 3-2" d="M481.243 778.282h-68.761v-69.888h209.664v69.888h-68.753" transform="translate(-388.087 -604.823)" fill="#bee2ed"/><path id="Stroke_39" data-name="Stroke 39" d="M500.311 768.212h-3.3a4.7 4.7 0 0 1-4.674-4.731v-5.988a5.479 5.479 0 0 1 4.674-5.537h3.646a34.518 34.518 0 0 0-34.617-34.419h-.424a34.368 34.368 0 0 0-34.843 33.879v.55h3.454a5.49 5.49 0 0 1 4.693 5.537v5.977a4.715 4.715 0 0 1-4.693 4.727h-3.454v106.58h69.54z" transform="translate(-336.488 -579.027)" fill="#fff"/><path id="Fill_25-2" data-name="Fill 25-2" d="M494.519 746.024c-.134 4.994-2.274 8.829-4.777 8.562h-74.305c-2.507.275-4.647-3.56-4.785-8.554V735.22c.145-4.987 2.285-8.8 4.785-8.525h74.305c2.5-.267 4.631 3.545 4.777 8.525z" transform="translate(-393.247 -553.229)" fill="#dcf5ff"/><path id="Fill_29" data-name="Fill 29" d="M531.1 746.023c-.133 4.995-2.27 8.823-4.773 8.563h-74.335c-2.5.244-4.624-3.584-4.761-8.563v-10.8c.145-4.964 2.27-8.768 4.761-8.524h74.332c2.5-.26 4.628 3.546 4.773 8.524z" transform="translate(-290.049 -553.229)" fill="#dcf5ff"/><rect id="Rectangle_4329" data-name="Rectangle 4329" width="72.77" height="19.344" rx="9.672" transform="translate(9.764 311.715)" fill="#a5c6ad"/><rect id="Rectangle_4330" data-name="Rectangle 4330" width="72.77" height="19.344" rx="9.672" transform="translate(63.19 360.535)" fill="#a5c6ad"/><rect id="Rectangle_4331" data-name="Rectangle 4331" width="72.77" height="19.344" rx="9.672" transform="translate(-48.268 387.249)" fill="#a5c6ad"/></g></g><path id="Path_10897" data-name="Path 10897" d="M250.6 336.433s-9.65-57.876 43.4-69.933h49.435s49.436 4.823 47.024 67.522H354.29V371.4h-72.345v-34.967z" transform="translate(-133.484 196.024)" fill="#fff"/><path id="Line_487" data-name="Line 487" fill="none" stroke="#000" stroke-linecap="round" stroke-linejoin="round" stroke-width="1" d="M150.871 510.754v16.88"/><path id="Line_488" data-name="Line 488" fill="none" stroke="#000" stroke-linecap="round" stroke-linejoin="round" stroke-width="1" d="M220.806 510.754v18.086"/><path id="Path_10898" data-name="Path 10898" d="M303.259 289.271v8.988h13.362s-.2 19.292-24.313 21.7c0 0-20.483.95-24.115-21.7h12.057c0-7.355.125-16.946.125-24.3a5.111 5.111 0 0 1-3.567-9.106L295.577 244q6.475 2.467 12.952 4.939a42.38 42.38 0 0 1 5.761 18.272c.27 3.711 1.252 17.24-5.927 21.072a9.477 9.477 0 0 1-5.1.989" transform="translate(-107.676 164.266)" fill="#9b6a3b"/><path id="Path_10899" data-name="Path 10899" d="M172.7 438.226a6.19 6.19 0 0 0 4.116-1.425" fill="none" stroke="#000" stroke-linecap="round" stroke-linejoin="round" stroke-width="1"/><path id="Path_10900" data-name="Path 10900" d="M175.225 434.221s-.822-2.414-4.775-1.208" fill="none" stroke="#000" stroke-linecap="round" stroke-linejoin="round" stroke-width="1"/><path id="Path_10901" data-name="Path 10901" d="M294.573 251.4s-14.237 19.181-21.595 19.613c-5.477-2.387-2.518-11.922.67-16.972 5.279-8.366 13.765-17.814 22.063-10.058 0 0 13.439-1.908 13.439 14.973 0 0-5.04-7.876-14.577-7.555" transform="translate(-105.226 160.167)"/><path id="Path_10902" data-name="Path 10902" d="M282.792 249.894c.745.569.439 2.221-.685 3.69s-2.636 2.2-3.381 1.628-.439-2.221.682-3.69 2.638-2.2 3.383-1.628" transform="translate(-94.432 175.768)"/><path id="Path_10903" data-name="Path 10903" d="M188.613 425.34c.745.569.439 2.221-.685 3.69s-2.636 2.2-3.381 1.628-.439-2.221.682-3.69 2.639-2.197 3.384-1.628z" fill="none" stroke="#000" stroke-width="1"/><path id="Path_10904" data-name="Path 10904" d="m192.927 429.986 1.149 7.464s.219 1.153-.933 1.153" fill="none" stroke="#000" stroke-linecap="round" stroke-linejoin="round" stroke-width="1"/><path id="Path_10905" data-name="Path 10905" d="M194.967 443.21s-5.322.6-6.2-4.608" fill="none" stroke="#000" stroke-linecap="round" stroke-linejoin="round" stroke-width="1"/><path id="Path_10906" data-name="Path 10906" d="M277.322 255.66a2.058 2.058 0 1 0 2.057-2.057 2.057 2.057 0 0 0-2.057 2.057" transform="translate(-95.066 180.885)" fill="#a0513c"/><path id="Path_10907" data-name="Path 10907" d="M189.02 433.174a.795.795 0 1 0 .793-.793.792.792 0 0 0-.793.793z" stroke="#000" stroke-linecap="round" stroke-linejoin="round" stroke-width="1"/><path id="Path_10908" data-name="Path 10908" d="M340.773 333.29a39.79 39.79 0 1 0-79.579 0h9.646a30.144 30.144 0 1 1 60.287 0z" transform="translate(-117.556 234.135)" fill="#262626"/><path id="Path_10909" data-name="Path 10909" d="m250.066 333.3 3.041-34.754h24.672c5.7-7.234 12.417-4.823 12.417-4.823 11.563 4.618 14.522 13.167 15.149 18.745a5.319 5.319 0 0 1-4.772 5.855l-21.26 1.927s-2.411 7.234-2.411 13.263z" transform="translate(-133.264 233.909)" fill="#9b6a3b"/><path id="Path_10910" data-name="Path 10910" d="M122.59 567.258s8.99-22.738 21.048-34.8" fill="none" stroke="#000" stroke-linecap="round" stroke-linejoin="round" stroke-width="1"/><path id="Path_10911" data-name="Path 10911" d="M346.8 297.534v24.52a12.857 12.857 0 0 1-12.858 12.858h-16.08s-1.206-12.057-10.852-24.115c0 0-13.263 10.852-25.321 8.44-8.578-1.715-2.479-13.227 3.147-21.117a13.863 13.863 0 0 1 11.865-5.759 39.758 39.758 0 0 1 18.749 5.173z" transform="translate(-94.645 232.512)" fill="#9b6a3b"/><path id="Path_10912" data-name="Path 10912" d="M221.203 530.046s4.425 0 16.482 12.057" fill="none" stroke="#000" stroke-linecap="round" stroke-linejoin="round" stroke-width="1"/><path id="Path_10913" data-name="Path 10913" d="M286.811 271.646 279.694 262l7.232 2.409z" transform="translate(-91.443 189.672)"/><path id="Path_10914" data-name="Path 10914" d="M292.929 254.617a3.617 3.617 0 1 1-3.618-3.617 3.618 3.618 0 0 1 3.617 3.617" transform="translate(-82.976 174.146)" fill="#9b6a3b"/><path id="Path_10915" data-name="Path 10915" d="M289.732 252.566c-.468.813-2.146.721-3.747-.2s-2.52-2.332-2.05-3.145 2.146-.721 3.747.2 2.518 2.332 2.05 3.145" transform="translate(-88.845 176.827)"/><path id="Path_10916" data-name="Path 10916" d="M200.887 429.432c-.468.813-2.146.721-3.747-.2s-2.52-2.332-2.05-3.145 2.146-.721 3.747.2 2.518 2.332 2.05 3.145z" fill="none" stroke="#000" stroke-width="1"/><path id="Path_10917" data-name="Path 10917" d="M195.669 433.174a.795.795 0 1 0 .793-.793.792.792 0 0 0-.793.793z" stroke="#000" stroke-linecap="round" stroke-linejoin="round" stroke-width="1"/><path id="Path_10918" data-name="Path 10918" d="M178.604 444.438s7.6 8.773 17.061 9.209" fill="none" stroke="#000" stroke-linecap="round" stroke-linejoin="round" stroke-width="1"/><rect id="Rectangle_4332" data-name="Rectangle 4332" width="99" height="61.424" rx="6" transform="translate(137.999 506)" fill="#a0a3a3"/><path id="Path_10920" data-name="Path 10920" d="M1281.7 367.752a16.252 16.252 0 1 1-16.252-16.252 16.252 16.252 0 0 1 16.252 16.252" transform="translate(-1077.195 171.342)" fill="#e91d50"/><path id="Path_10919" data-name="Path 10919" d="m1275.889 360.525-12.695 11.637h6.347l-4.232 9.521L1278 368.988l-7.405.475z" transform="translate(-1082.609 167.852)" fill="#fff"/></svg>