<svg xmlns="http://www.w3.org/2000/svg" width="390" height="567" viewBox="0 0 390 567"><defs><clipPath id="clip-path"><path id="Rectangle_4333" data-name="Rectangle 4333" fill="#fff" stroke="#707070" stroke-width="1" d="M1430 3285h390v567h-390z"/></clipPath><clipPath id="clip-path-2"><path id="Path_11208" data-name="Path 11208" d="M0 0h41.693v8.1H0z" fill="none"/></clipPath></defs><g id="Mask_Group_100" data-name="Mask Group 100" transform="translate(-1430 -3285)" clip-path="url(#clip-path)"><path id="Path_10922" data-name="Path 10922" d="m1372.069 977.913 1.47-566.913C1232.8 455.418 1242.611 577.559 1129 666.882c-197.348-3.629-262.31 143.163-262.31 311.541z" transform="translate(449 2874)" fill="#c3e0c5"/><g id="Path_10991" data-name="Path 10991" fill="#fff" stroke="none"><path d="M198.834 461.177H11.19c-3.965 0-7.19-3.577-7.19-7.974V11.975C4 7.578 7.225 4 11.19 4h187.644c3.965 0 7.19 3.578 7.19 7.975v441.228c0 4.397-3.225 7.974-7.19 7.974z" transform="translate(1524.37 3324.379)"/><path d="M11.19 8C9.46 8 8 9.82 8 11.975v441.228c0 2.154 1.46 3.974 3.19 3.974h187.644c1.73 0 3.19-1.82 3.19-3.974V11.975c0-2.155-1.46-3.975-3.19-3.975H11.19m0-8h187.644c6.18 0 11.19 5.361 11.19 11.975v441.228c0 6.613-5.01 11.974-11.19 11.974H11.19c-6.18 0-11.19-5.361-11.19-11.974V11.975C0 5.36 5.01 0 11.19 0z" fill="#a0a3a3" transform="translate(1524.37 3324.379)"/></g><g id="Group_5100" data-name="Group 5100" transform="translate(1603.071 3414.808)"><g id="Group_5099" data-name="Group 5099" fill="#6084ab"><path id="Subtraction_1" data-name="Subtraction 1" d="M26.115 29.248a25.773 25.773 0 0 1-10.165-2.069 26.018 26.018 0 0 1-8.3-5.641 26.249 26.249 0 0 1-5.6-8.367A26.339 26.339 0 0 1 0 2.925 26.94 26.94 0 0 1 .159 0H52.07a26.939 26.939 0 0 1 .159 2.925 26.339 26.339 0 0 1-2.052 10.246 26.249 26.249 0 0 1-5.6 8.367 26.018 26.018 0 0 1-8.3 5.641 25.773 25.773 0 0 1-10.162 2.069z" transform="translate(0 25.07)"/><rect id="Rectangle_4339" data-name="Rectangle 4339" width="8.357" height="21.936" rx="4" transform="translate(9.401)"/><rect id="Rectangle_4340" data-name="Rectangle 4340" width="8.357" height="21.936" rx="4" transform="translate(34.471)"/></g></g><text id="chargeTime" transform="translate(1551 3501.394)" fill="#6084ab" font-size="25" font-family="Poppins-Bold, Poppins" font-weight="700"><tspan x="0" y="0">chargeTime</tspan></text><text id="EV_Charging_App" data-name="EV Charging App" transform="translate(1590 3523.082)" fill="#6084ab" font-size="9" font-family="Poppins-Medium, Poppins" font-weight="500"><tspan x="0" y="0">EV Charging App</tspan></text><g id="Group_5101" data-name="Group 5101" transform="translate(1579 3551.441)"><g id="Group_6803" data-name="Group 6803" transform="translate(1 -2.441)"><text id="Powered_By" data-name="Powered By" transform="translate(0 9)" fill="#6f8098" font-size="9" font-family="Poppins-Regular, Poppins"><tspan x="0" y="0">Powered By</tspan></text></g><g id="Group_6809" data-name="Group 6809" transform="translate(46.29 1.391)"><g id="Mask_Group_102" data-name="Mask Group 102" transform="translate(10.642 -1.831)" clip-path="url(#clip-path-2)" fill="#e4003e"><path id="Path_10900" data-name="Path 10900" d="m3.892 27.408 2.168-.082a3.082 3.082 0 0 1-.941 2.074 2.87 2.87 0 0 1-2.063.812 2.937 2.937 0 0 1-2.171-.894A3 3 0 0 1 0 27.127a2.848 2.848 0 0 1 .894-2.109 2.954 2.954 0 0 1 2.145-.877 2.942 2.942 0 0 1 1.928.69 2.928 2.928 0 0 1 1.04 1.759l-2.215.082a.877.877 0 0 0-.725-.374.82.82 0 0 0-.614.245.851.851 0 0 0-.24.619.87.87 0 0 0 .254.637.855.855 0 0 0 .634.257.824.824 0 0 0 .789-.649" transform="translate(0 -22.113)"/><path id="Path_10901" data-name="Path 10901" d="M89.235 0v2.437a1.882 1.882 0 0 1 1.11-.4 1.63 1.63 0 0 1 1.335.608 2.529 2.529 0 0 1 .494 1.642v3.69h-2.186V4.9a1.075 1.075 0 0 0-.079-.5.331.331 0 0 0-.307-.129q-.368 0-.368.544v3.162h-2.185V0z" transform="translate(-79.737)"/><path id="Path_10902" data-name="Path 10902" d="M157.189 27.969v2.262a2.894 2.894 0 0 1-.491.047 2.994 2.994 0 0 1-2.191-.865 3.046 3.046 0 0 1 2.162-5.2 2.989 2.989 0 0 1 2.229.827 3.077 3.077 0 0 1 .815 2.259v2.857h-2.186v-2.7a1.127 1.127 0 0 0-.225-.736.742.742 0 0 0-.6-.275.86.86 0 0 0-.619 1.443.773.773 0 0 0 .579.234.991.991 0 0 0 .532-.152" transform="translate(-140.726 -22.178)"/><path id="Path_10903" data-name="Path 10903" d="M240.049 24.205v2.337a.861.861 0 0 0-.415-.129q-.6 0-.6.911v2.766h-2.186v-3.185a2.86 2.86 0 0 1 .689-2.013 2.378 2.378 0 0 1 1.841-.751 4.483 4.483 0 0 1 .666.064" transform="translate(-216.959 -22.113)"/><path id="Path_10904" data-name="Path 10904" d="m293.022 25.6-1.788 3.535h2.057v2.291h-5.616l1.776-3.547h-1.847V25.6z" transform="translate(-263.448 -23.453)"/><path id="Path_10905" data-name="Path 10905" d="M362.958 27.467h-3.313a1.6 1.6 0 0 1-.076-.462 1.62 1.62 0 0 1 .105-.573h1.11a.687.687 0 0 0-.73-.649.793.793 0 0 0-.666.348 1.459 1.459 0 0 0-.257.891 1.553 1.553 0 0 0 .248.917.764.764 0 0 0 .652.351.87.87 0 0 0 .631-.327l1.245 1.5a3.057 3.057 0 0 1-1.934.684 2.982 2.982 0 0 1-2.18-.871 3.072 3.072 0 0 1 .009-4.318 2.99 2.99 0 0 1 2.188-.882 2.944 2.944 0 0 1 2.992 2.986q0 .129-.023.409" transform="translate(-326.932 -22.05)"/><path id="Path_10906" data-name="Path 10906" d="M441.1 24.205v2.337a.861.861 0 0 0-.415-.129q-.6 0-.6.911v2.766H437.9v-3.185a2.86 2.86 0 0 1 .689-2.013 2.378 2.378 0 0 1 1.841-.751 4.482 4.482 0 0 1 .666.064" transform="translate(-401.122 -22.113)"/></g></g></g><rect id="Rectangle_4342" data-name="Rectangle 4342" width="94.878" height="24.871" rx="12.435" transform="translate(1463.658 3397.396)" fill="#bee2ed"/><rect id="Rectangle_4345" data-name="Rectangle 4345" width="51.584" height="23.95" rx="11.975" transform="translate(1748.305 3300.429)" fill="#bee2ed"/><rect id="Rectangle_4346" data-name="Rectangle 4346" width="51.584" height="29.246" rx="14.623" transform="translate(1704.091 3285)" fill="#bee2ed"/><rect id="Rectangle_4347" data-name="Rectangle 4347" width="77.376" height="23.95" rx="11.975" transform="translate(1674.614 3305.035)" fill="#bee2ed"/><rect id="Rectangle_4343" data-name="Rectangle 4343" width="79.218" height="21.186" rx="10.593" transform="translate(1437.866 3382.657)" fill="#bee2ed"/><path id="Path_10992" data-name="Path 10992" d="M-465.15 2738.2v-28.556L-270.083 2612v27.634z" transform="translate(1996.985 818.258)" fill="#ecebeb" opacity=".2"/><path id="Path_10993" data-name="Path 10993" d="M-465.15 2739.019v-19.344l195.067-97.242v18.024z" transform="translate(1996.985 888.885)" fill="#ecebeb" opacity=".2"/><path id="Path_10994" data-name="Path 10994" d="M-465.15 2716.611v-6.97L-270.083 2612v4.391z" transform="translate(1996.985 925.632)" fill="#ecebeb" opacity=".2"/><path id="Path_10923" data-name="Path 10923" d="M1601.333 3663.824a16.591 16.591 0 0 0-3.957 1.148" fill="none" stroke="#000" stroke-linecap="round" stroke-linejoin="round" stroke-width="2"/><path id="Rectangle_4334" data-name="Rectangle 4334" transform="translate(1453.509 3615.197)" fill="#6084ab" d="M0 0h38.642v109.929H0z"/><path id="Rectangle_4335" data-name="Rectangle 4335" transform="translate(1459.172 3624.524)" fill="#fff" d="M0 0h27.316v16.656H0z"/><path id="Rectangle_4336" data-name="Rectangle 4336" transform="translate(1464.89 3725.126)" fill="#fff" d="M0 0h5.33v63.739H0z"/><path id="Path_10925" data-name="Path 10925" d="m1325.194 753.082 5.33-4.1V746.5h-5.33z" transform="translate(139.695 2978.626)" fill="#262626"/><path id="Path_10988" data-name="Path 10988" d="M1472.83 3656.503a14.657 14.657 0 1 1-14.657 14.657 14.657 14.657 0 0 1 14.657-14.657z" fill="#e91d50" stroke="#fff" stroke-linecap="round" stroke-width="1"/><path id="Path_10926" data-name="Path 10926" d="M1170.729 542.31a6.278 6.278 0 0 1 3.593 3.688 5.969 5.969 0 0 1 .189 3.025 1.267 1.267 0 0 1 1.395.768 1.291 1.291 0 0 1-1.028 1.6 6.985 6.985 0 0 1-.461 4.219c-.607 1.388-3.272 4.72-8.6 1.388v11.326l-5.33-6v-7.994c-.2 0 .266.2-.712-.922a3.307 3.307 0 0 1-.674-3.085 5.524 5.524 0 0 1 1.009-2.106c2.856-5.043 7.671-7.009 10.621-5.907" transform="translate(405.007 3046.876)" fill="#d5a06c"/><path id="Path_10927" data-name="Path 10927" d="M1579.045 3598.782s-1.985.331-1.891-2.08" fill="none" stroke="#000" stroke-linecap="round" stroke-linejoin="round" stroke-width="1"/><path id="Path_10928" data-name="Path 10928" d="M1166.889 555.254a1.513 1.513 0 1 0 1.513-1.513 1.513 1.513 0 0 0-1.513 1.513" transform="translate(405.774 3042.961)" fill="#cc7e37"/><path id="Path_10929" data-name="Path 10929" d="M1578.005 3595.651a.39.39 0 1 0 .39-.39.39.39 0 0 0-.39.39z" fill="#050605" stroke="#000" stroke-linecap="round" stroke-linejoin="round" stroke-width=".7"/><path id="Path_10930" data-name="Path 10930" d="M1164.169 548.351c-.547.279-.89.7-.765.947s.668.217 1.215-.062.889-.7.765-.947-.668-.216-1.215.062" transform="translate(412.617 3044.837)"/><path id="Path_10931" data-name="Path 10931" d="M1576.786 3593.188c-.547.279-.89.7-.765.947s.668.217 1.215-.062.889-.7.765-.947-.668-.217-1.215.062z" fill="none" stroke="#000" stroke-linecap="round" stroke-linejoin="round" stroke-width="1"/><path id="Path_10932" data-name="Path 10932" d="M1174.539 544.131a2.991 2.991 0 0 0 1.352-1.785c.429-1.576-1.325-2.963-1.7-3.262a4.651 4.651 0 0 0-3.781-.945 3.966 3.966 0 0 0-1.277.567 5.669 5.669 0 0 0-3.64-.945c-3.275.357-4.709 3.846-4.87 4.255a10.092 10.092 0 0 0-.786 5.657 2.9 2.9 0 0 1 2.394-1.119 2.589 2.589 0 0 1 2.364 1.608 5.106 5.106 0 0 0 6.855-6.335 6.333 6.333 0 0 1 1.654.945 9.3 9.3 0 0 1 1.438 1.359" transform="translate(404.525 3048.305)"/><path id="Path_10933" data-name="Path 10933" d="M1568.597 3598.64s-1.134-1.749-2.978-.047" fill="none" stroke="#000" stroke-linecap="round" stroke-linejoin="round" stroke-width="1"/><path id="Path_10934" data-name="Path 10934" d="M1569.117 3596.151a3.084 3.084 0 0 0-2.392-1.435 3.011 3.011 0 0 0-2.208 1.063 3.621 3.621 0 0 0-.631 2.248 3.537 3.537 0 0 0 .947 2.524 3.645 3.645 0 0 0 2.839.946 3.054 3.054 0 0 0 .946-.315" fill="none" stroke="#000" stroke-linecap="round" stroke-linejoin="round" stroke-width="1"/><path id="Path_10935" data-name="Path 10935" d="M1205.273 566.02v-7.995a4.131 4.131 0 0 1-1.275-4.919s-16.714-1.077-13.383 12.248c0 0-8.588 0-8.42 7.226a10.106 10.106 0 0 0 1.611 5.225 6.983 6.983 0 0 0 6.809 3.538z" transform="translate(360.218 3043.18)"/><path id="Path_10936" data-name="Path 10936" d="m1186.572 575.866 1.7 1.917s5.33 22.652 6.662 35.977l-20.653-9.994 2.665-3.331s-4.191-7.247-12.756-5.622L1175.883 573s1.733-3.216 6.4-2.55c3.552.507 4.292 5.411 4.292 5.411" transform="translate(382.546 3037.414)" fill="#f5dfd8"/><path id="Line_489" data-name="Line 489" fill="none" stroke="#000" stroke-linecap="round" stroke-linejoin="round" stroke-width="1" d="m1566.157 3621.193-5.996 15.99"/><path id="Path_10937" data-name="Path 10937" d="m1178.405 633.8-57.03 108.966 23.984 13.991L1192 668.673s36.369 37.684 6.859 89.866l28.235-1.821s18.871-69.251-13.774-106.56z" transform="translate(373.495 3015.673)" fill="#844327"/><path id="Path_10938" data-name="Path 10938" d="M1136.435 818.415v6.133s15.346-3.5 15.467 11.536h-30.526v-16.753z" transform="translate(454.11 2954.624)" fill="#d5a06c"/><path id="Path_10939" data-name="Path 10939" d="m1281.775 805.285-3.675 5.415s14.559 5.98 6 18.339l-24.956-17.579 9.648-13.7z" transform="translate(227.425 2961.515)" fill="#d5a06c"/><path id="Path_10940" data-name="Path 10940" d="M1504.114 3772.756s-3.674-.958-5.913-.091" fill="none" stroke="#000" stroke-linecap="round" stroke-linejoin="round" stroke-width="1"/><path id="Path_10941" data-name="Path 10941" d="M1589.723 3780s-3.685.911-5.241 2.741" fill="none" stroke="#000" stroke-linecap="round" stroke-linejoin="round" stroke-width="1"/><path id="Path_10942" data-name="Path 10942" d="m1146.424 612.519-2.665 3.331s31.979 13.991 37.976 20.653c0 0 9.994 10.66 2 10.66 0 0 0 2-2.665 1.333 0 0 .666 2-2 2.665 0 0 0 2.447-1.678 1.888a1.835 1.835 0 0 1-1.162-1.347c-.423-1.805-1.583-6.155-3.156-7.2-2-1.333-39.974-21.986-39.974-21.986s-4-2.665-2-8.661l2.568-6.955s7.426-2.372 12.756 5.622" transform="translate(413.071 3025.33)" fill="#d5a06c"/><path id="Path_10943" data-name="Path 10943" d="M1556.831 3641.18a9.218 9.218 0 0 0-4.664-1.332" fill="none" stroke="#000" stroke-linecap="round" stroke-linejoin="round" stroke-width="1"/><path id="Path_10944" data-name="Path 10944" d="M1105.173 648.33a6.33 6.33 0 0 0 8.513 2.768l7.421-3.779-5.744-11.28-7.421 3.779a6.33 6.33 0 0 0-2.768 8.513" transform="translate(496.16 3015.494)" fill="#6084ab"/><path id="Path_10945" data-name="Path 10945" d="m1096.558 646.13.907 1.781 5.64-2.872a1 1 0 1 0-.907-1.781z" transform="translate(518.893 3013.121)" fill="#517293"/><path id="Path_10946" data-name="Path 10946" d="m1101.1 637.219.9 1.781 5.64-2.872a1 1 0 1 0-.907-1.781z" transform="translate(511.332 3016.095)" fill="#517293"/><path id="Path_10947" data-name="Path 10947" d="m842.809 780.785-4.4-4.564a12.4 12.4 0 0 1-3.47-8.648l.162-42.932a4.816 4.816 0 0 1 1.906-3.82l20.188-15.32h152.866l20.188 15.32a4.817 4.817 0 0 1 1.905 3.82l.162 42.932a12.392 12.392 0 0 1-3.47 8.648l-4.4 4.564z" transform="translate(764.531 2992.311)" fill="#aeafaf"/><path id="Path_10948" data-name="Path 10948" d="m994.658 639.792 26.55 41.307H868.343l26.873-41.307s40.148-16.656 99.443 0" transform="translate(753.382 3016.712)" fill="#e0e0e0"/><path id="Path_10949" data-name="Path 10949" d="M879.166 747.008H839.04a3.846 3.846 0 0 1-2.384-6.864c4.778-3.778 20.482-15.409 35.356-17.637l4.73 3.522a6.016 6.016 0 0 1 2.424 4.826z" transform="translate(917.51 2986.634)" fill="#fff"/><path id="Path_10950" data-name="Path 10950" d="M1065.194 747.225h40.125a3.846 3.846 0 0 0 2.385-6.864c-4.778-3.778-20.482-15.409-35.356-17.637l-4.73 3.522a6.015 6.015 0 0 0-2.424 4.826z" transform="translate(534.275 2986.562)" fill="#fff"/><path id="Line_490" data-name="Line 490" fill="none" stroke="#fff" stroke-linecap="round" stroke-linejoin="round" stroke-width="2" d="M1741.712 3731.708H1656.1"/><path id="Path_10951" data-name="Path 10951" d="M853.885 835.822h166.5a7.692 7.692 0 0 0 7.692-7.691V818.5H846.194v9.631a7.691 7.691 0 0 0 7.691 7.691" transform="translate(761.27 2954.595)" fill="#262626"/><path id="Path_10952" data-name="Path 10952" d="M1098.591 835.822h-11.578a7.691 7.691 0 0 1-7.691-7.691V818.5l26.561 10.66a6.352 6.352 0 0 1-1.807 4.415 7.514 7.514 0 0 1-5.484 2.247" transform="translate(528.143 2954.595)" fill="#fff"/><path id="Path_10953" data-name="Path 10953" d="M854.638 835.822h12.512a7.692 7.692 0 0 0 7.692-7.691V818.5l-28.648 11.326s.041.129.126.352a8.9 8.9 0 0 0 8.318 5.644" transform="translate(914.505 2954.595)" fill="#fff"/><path id="Path_10954" data-name="Path 10954" d="M966.766 681.1h14.962l-26.55-41.307c-39.527-11.1-70.546-7.4-86.834-3.7 0 0 19.074 48.137 73.306 39.888a36.286 36.286 0 0 1 24.144 4.518q.485.292.973.6" transform="translate(792.863 3016.712)" fill="#efefef"/><path id="Path_10955" data-name="Path 10955" d="m1048.631 687.43-34.893-36.07-3.544 5.449 30.442 30.622z" transform="translate(631.453 3010.38)" fill="#fff"/><path id="Path_10956" data-name="Path 10956" d="m1059.255 691.482-26.907-27.982-2.54 3.627 23.637 24.355z" transform="translate(607.762 3006.328)" fill="#fff"/><path id="Line_491" data-name="Line 491" fill="none" stroke="#000" stroke-linecap="round" stroke-linejoin="round" stroke-width="1" d="m1782.065 3694.05-7.474 3.761"/><path id="Path_10957" data-name="Path 10957" d="M1118.52 697.16h-6a5.33 5.33 0 0 1 0-10.66h6a5.33 5.33 0 0 1 0 10.66" transform="translate(491.609 2998.652)" fill="#aeafaf"/><path id="Path_10987" data-name="Path 10987" d="M1118.52 697.16h-6a5.33 5.33 0 0 1 0-10.66h6a5.33 5.33 0 0 1 0 10.66" transform="translate(673.996 2998.652)" fill="#aeafaf"/><path id="Line_492" data-name="Line 492" fill="none" stroke="#000" stroke-linecap="round" stroke-linejoin="round" stroke-width="1" d="m1614.081 3694.05 7.474 3.761"/><path id="Path_10958" data-name="Path 10958" d="m1308.057 642.846 18.646 17.092h-9.323l6.215 13.984-18.645-18.645 10.876.7z" transform="translate(157.004 3013.222)" fill="#fff"/><path id="Rectangle_4341" data-name="Rectangle 4341" d="M0 0h353a30 30 0 0 1-30 30H30A30 30 0 0 1 0 0z" transform="translate(1462 3789)" fill="#a5c6ad"/><path id="Path_10924" data-name="Path 10924" d="M1584.478 3669.828s-13.087 10.66-15.05 27.316.654 47.969-26.829 48.635c0 0-22.248-1.332-25.52-35.977s-24.211-37.976-24.211-37.976" fill="none" stroke="#000" stroke-linecap="round" stroke-linejoin="round" stroke-width="2"/></g></svg>