<svg id="Group_5097" data-name="Group 5097" xmlns="http://www.w3.org/2000/svg" width="390.565" height="567.424" viewBox="0 0 390.565 567.424"><g id="Group_5088" data-name="Group 5088" transform="translate(7.889)"><path id="Path_10835" data-name="Path 10835" d="M1178.021 142.41c-11.926-27.875-17.576-58.032-17.576-88.351V39.864a39.364 39.364 0 0 0-78.728 0v11.694c0 30.837-5.895 61.5-18.32 89.723-7.082 16.085-11.2 35.34-11.2 56.04 0 56.389 30.566 102.1 68.272 102.1s68.272-45.711 68.272-102.1c0-20.218-3.934-39.058-10.717-54.91" transform="translate(-1047.11 -.5)" fill="#7ba888"/><path id="Path_10837" data-name="Path 10837" d="M1052.194 195.688c0 56.389 30.566 102.1 68.272 102.1s68.272-45.711 68.272-102.1c0-20.218-3.934-39.058-10.717-54.91-11.926-27.875-17.576-58.032-17.576-88.351V38.232a39.29 39.29 0 0 0-14.645-30.64s-39.477 25.719-38.247 87.226-55.356 100.87-55.356 100.87" transform="translate(-1047.11 1.132)" fill="#a5c6ad"/><path id="Path_10838" data-name="Path 10838" d="M1175.6 108.517c1.59-.411 1.239 3.045 1.886 4.558 6.783 15.853 10.717 34.692 10.717 54.91 0 56.389-30.566 102.1-68.272 102.1s-99.749-50.375-61.174-146.13c0 0 74.316-43.818 106.5-49.845" transform="translate(-1046.571 28.835)" fill="#77947f"/></g><path id="Path_10839" data-name="Path 10839" d="M1052.194 604.4V235.553L1296.919 97.1l144.61 73.808V604.4z" transform="translate(-1052.194 -37.469)" fill="#eaf7fc"/><path id="Path_10840" data-name="Path 10840" d="m1401.336 157.5-169.142 66.427v367.068h169.142z" transform="translate(-1010.771 -23.57)" fill="#bee2ed"/><path id="Rectangle_4319" data-name="Rectangle 4319" fill="none" stroke="#fff" stroke-linecap="round" stroke-linejoin="round" stroke-width="3" d="M262.017 228.649h82.418v103.33h-82.418z"/><path id="Path_10847" data-name="Path 10847" d="m1191.428 493 55.37 8.849a18.188 18.188 0 0 0 6.733-9.473z" transform="translate(-1020.153 53.494)" fill="#262626"/><path id="Path_10852" data-name="Path 10852" d="M1424.718 171.307 1278.641 97.5l-155.26 87.505s75.606 40.105 173.4 37.352z" transform="translate(-1035.384 -37.378)" fill="#f5dfd8"/><path id="Line_481" data-name="Line 481" fill="none" stroke="#262626" stroke-linecap="round" stroke-linejoin="round" stroke-width="3" d="M346.223 112.161V92.72"/><path id="Path_10853" data-name="Path 10853" d="m365.347 106.867-84.562-66.376a19.991 19.991 0 0 0-32.293 14.432l-.979 15.1" fill="none" stroke="#262626" stroke-linecap="round" stroke-linejoin="round" stroke-width="3"/><path id="Path_10854" data-name="Path 10854" d="M1280.708 128.257a22.757 22.757 0 1 1-22.757-22.757 22.758 22.758 0 0 1 22.757 22.757" transform="translate(-1010.081 -35.537)" fill="#fff"/><path id="Path_10855" data-name="Path 10855" d="m1257.95 128.257-22.752-.483a22.757 22.757 0 0 1 45.51.483z" transform="translate(-1010.08 -35.537)" fill="#514849"/><path id="Path_10856" data-name="Path 10856" d="M254.672 426.115s-13.25 8.457-15.71 23.219-15.62 27.432-26.877 25.4" fill="none" stroke="#000" stroke-linecap="round" stroke-linejoin="round" stroke-width="3"/><path id="Path_10857" data-name="Path 10857" d="m1157.416 386.639-17.222-2.46 15.009-94.453A20.315 20.315 0 0 1 1171.242 273l26.723-5.4a18.582 18.582 0 0 1 20.366 10.049c9.409 19.19 23.642 54.745 8.544 69.473a10.436 10.436 0 0 1-7.311 2.859h-59.23z" transform="translate(-1031.943 1.681)" fill="#7895b8"/><path id="Line_482" data-name="Line 482" fill="none" stroke="#000" stroke-linecap="round" stroke-linejoin="round" stroke-width="1" d="m168.527 293.846 6.151 33.213"/><path id="Line_483" data-name="Line 483" fill="none" stroke="#000" stroke-linecap="round" stroke-linejoin="round" stroke-width="1" d="m131.623 301.227-3.69 43.054"/><path id="Path_10859" data-name="Path 10859" d="m1151.159 425.827 6.654-92.128h51.1l17.275 118.173-35.087-7.846-7.92-61.367-2.46 59.046z" transform="translate(-1029.42 16.978)" fill="#514849"/><path id="Path_10860" data-name="Path 10860" d="M1163.175 415.114h15.112l-.327 7.856z" transform="translate(-1026.655 35.713)" fill="#262626"/><path id="Path_10861" data-name="Path 10861" d="m1183.151 420.707 33.044-5.593 2.635 18.024-35.087-7.847z" transform="translate(-1022.058 35.713)" fill="#262626"/><path id="Line_484" data-name="Line 484" fill="none" stroke="#000" stroke-linecap="round" stroke-linejoin="round" stroke-width="1" d="m148.845 370.114 4.921 29.523"/><path id="Path_10862" data-name="Path 10862" d="M1142.283 361.749s-6.163 29.76 4.054 35.939a1.253 1.253 0 0 0 1.89-1.079v-6.773s5.355-1.876 5.4-15.135l3.733-10.8z" transform="translate(-1031.886 23.433)" fill="#d5a06c"/><path id="Path_10863" data-name="Path 10863" d="M114.401 397.177s-2.273 16.195 1.939 16.092" fill="none" stroke="#000" stroke-linecap="round" stroke-linejoin="round" stroke-width="1"/><path id="Path_10864" data-name="Path 10864" d="m1172.934 281.115-6.005-.3a.453.453 0 0 1-.614-.5l1.82-10.012a3.888 3.888 0 0 1 3.218-3.144l16.847-2.66a2.161 2.161 0 0 1 2.336 2.957l-6.853 16.645a.453.453 0 0 1-.773.109l-2.6-1.86z" transform="translate(-1025.934 1.045)" fill="#fff"/><path id="Path_10865" data-name="Path 10865" d="m1175.5 280.683-12.3 49.329 7.767 11.89a1.115 1.115 0 0 0 1.8.084l7.65-9.632-3.075-51.281z" transform="translate(-1026.65 4.777)" fill="#fff"/><path id="Path_10866" data-name="Path 10866" d="m1142.794 300.6 19.54 1.305a1.728 1.728 0 0 1 1.29.72l20.438 28.609H1168.8a1.605 1.605 0 0 1-1.206-.545l-25.4-28.864a.739.739 0 0 1 .6-1.225" transform="translate(-1031.526 9.359)"/><path id="Path_10867" data-name="Path 10867" d="m111.268 309.959 19.54 1.305a1.728 1.728 0 0 1 1.29.72l20.438 28.609h-15.262a1.605 1.605 0 0 1-1.206-.545l-25.4-28.864a.739.739 0 0 1 .6-1.225z" fill="none" stroke="#000" stroke-linecap="round" stroke-linejoin="round" stroke-width="1"/><path id="Path_10868" data-name="Path 10868" d="m1185.468 332.731-23.368-5.421s-11.068-7.747-10.107-17.993a1.518 1.518 0 0 1 1.859-1.317l12.962 3.021a.731.731 0 0 0 .761-1.138l-2-2.795s2.422-1.8 9.928 7.365l9.965 1.171z" transform="translate(-1029.242 10.82)" fill="#d5a06c"/><path id="Path_10869" data-name="Path 10869" d="M1189.792 271.864c0-4.949-.084-11.4-.084-16.352a3.548 3.548 0 0 0 3.582-2.51c.362-1.293 1.272-2.421.192-3.321-4.209-4.678-9.794-9.653-14-14.331l-8.716 3.324a28.775 28.775 0 0 0-3.7 10.69 3.067 3.067 0 0 0-.87-.138c-2.016 0-3.651 1.961-3.651 4.382s1.635 4.382 3.651 4.382a3.1 3.1 0 0 0 .793-.111c.4 2.961 1.434 5.961 3.891 7.272l.466 11.593s-4.276 10.456 5.145 10.456 13.306-11.686 13.306-11.686z" transform="translate(-1026.801 -5.655)" fill="#d5a06c"/><path id="Path_10870" data-name="Path 10870" d="M1168.106 247.823c.316.546 1.445.486 2.522-.137s1.7-1.57 1.38-2.116-1.445-.486-2.523.137-1.695 1.57-1.379 2.116" transform="translate(-1025.539 -3.389)"/><path id="Path_10871" data-name="Path 10871" d="M142.567 244.434c.316.546 1.445.486 2.522-.137s1.7-1.57 1.38-2.116-1.445-.486-2.523.137-1.694 1.57-1.379 2.116z" fill="none" stroke="#000" stroke-linecap="round" stroke-linejoin="round" stroke-width="1"/><path id="Path_10872" data-name="Path 10872" d="M1176.181 245.376c-.5.384-.3 1.5.46 2.484s1.775 1.479 2.276 1.095.3-1.495-.46-2.484-1.774-1.479-2.276-1.095" transform="translate(-1023.724 -3.378)"/><path id="Path_10873" data-name="Path 10873" d="M152.457 241.998c-.5.384-.3 1.5.46 2.484s1.775 1.479 2.276 1.095.3-1.495-.46-2.484-1.774-1.478-2.276-1.095z" fill="none" stroke="#000" stroke-linecap="round" stroke-linejoin="round" stroke-width="1"/><path id="Path_10874" data-name="Path 10874" d="m148.112 244.73-.775 5.023s-.148.775.626.775" fill="none" stroke="#000" stroke-linecap="round" stroke-linejoin="round" stroke-width="1"/><path id="Path_10875" data-name="Path 10875" d="M147.557 255.234s3.582.406 4.172-3.1" fill="none" stroke="#000" stroke-linecap="round" stroke-linejoin="round" stroke-width="1"/><path id="Path_10876" data-name="Path 10876" d="M1180.41 252.966a1.385 1.385 0 1 1-1.385-1.385 1.385 1.385 0 0 1 1.385 1.385" transform="translate(-1023.325 -1.92)" fill="#cc7e37"/><path id="Path_10877" data-name="Path 10877" d="M151.384 248.115a.535.535 0 1 1-.535-.534.535.535 0 0 1 .535.534z" fill="none" stroke="#000" stroke-linecap="round" stroke-linejoin="round" stroke-width="1"/><path id="Path_10878" data-name="Path 10878" d="M145.119 248.276a.535.535 0 1 1-.535-.534.535.535 0 0 1 .535.534z" fill="none" stroke="#000" stroke-linecap="round" stroke-linejoin="round" stroke-width="1"/><path id="Path_10879" data-name="Path 10879" d="M1184.83 244.385s-1.46-3.706-4.381-1.46-1.46 1.46-4.382 2.92l-.009-4.5s-5.525-.83-8.529 8.392a.4.4 0 0 1-.744.07c-1.768-3.588-7.36-16.911 7.821-15.645 0 0-.243-4.289 7.182-2.875s6.138 7.257 6.138 7.257 10.069 5.988 5.148 14.6c0 0 0-6.151-6.146-3.287a9.851 9.851 0 0 1-2.1-5.47" transform="translate(-1026.393 -6.656)"/><path id="Path_10880" data-name="Path 10880" d="M162 247.163s.554-1.625 3.213-.812" fill="none" stroke="#000" stroke-linecap="round" stroke-linejoin="round" stroke-width="1"/><path id="Path_10881" data-name="Path 10881" d="M1169.677 265.312v-5.39s2.231 2.062 4.326.711z" transform="translate(-1025.158)"/><path id="Path_10882" data-name="Path 10882" d="M144.519 265.312v-5.39s2.231 2.062 4.326.711z" fill="none" stroke="#000" stroke-linecap="round" stroke-linejoin="round" stroke-width=".75"/><path id="Path_10883" data-name="Path 10883" d="M140.374 247.741s-2.917 16.389 12.619 12.181" fill="none" stroke="#000" stroke-linecap="round" stroke-linejoin="round" stroke-width="1"/><path id="Path_10884" data-name="Path 10884" d="m1173.578 282.151-1.994-4.984a.851.851 0 0 1 .79-1.166h4.876a.948.948 0 0 1 .731.344l1.293 1.565a.752.752 0 0 1-.073 1.033l-3.513 3.208z" transform="translate(-1024.733 3.699)" fill="#fdd073"/><path id="Path_10885" data-name="Path 10885" d="M1314.391 384.1a32.6 32.6 0 1 1-32.6-32.6 32.6 32.6 0 0 1 32.6 32.6" transform="translate(-1006.859 21.074)" fill="#e91d50"/><path id="Path_10886" data-name="Path 10886" d="m1288.657 360.525-25.464 23.342h12.732l-8.488 19.1L1292.9 377.5l-14.854.953z" transform="translate(-1003.637 23.151)" fill="#fff"/><path id="Path_10841" data-name="Path 10841" d="M1052.194 378h5.2a184.749 184.749 0 0 1 87.406 21.985l58.7 31.526h-75.653l-75.653-39.811z" transform="translate(-1052.194 27.172)" fill="#fff"/><path id="Path_10842" data-name="Path 10842" d="M1052.194 421.5H1203.5l95.209 21.291a36.352 36.352 0 0 1 28.418 35.476v15.095a15.952 15.952 0 0 1-15.952 15.952h-258.981z" transform="translate(-1052.194 37.182)" fill="#a0a3a3"/><path id="Path_10843" data-name="Path 10843" d="m1052.194 389.139 75.653 39.808 94.781 21.386a33.492 33.492 0 0 1 26.1 31.448l1.278 34.98h-197.812z" transform="translate(-1052.194 29.736)" fill="#aeafaf"/><path id="Path_10844" data-name="Path 10844" d="M1292.068 513.412h-239.874V492.5h260.786a20.912 20.912 0 0 1-20.912 20.912" transform="translate(-1052.194 53.521)" fill="#262626"/><path id="Path_10845" data-name="Path 10845" d="M1170.462 485.634a38.134 38.134 0 1 1-38.134-38.134 38.133 38.133 0 0 1 38.134 38.134" transform="translate(-1042.529 43.166)" fill="#fff"/><path id="Path_10846" data-name="Path 10846" d="M1254.648 492.379a38.133 38.133 0 0 1-68.073.245z" transform="translate(-1021.269 53.494)" fill="#f5dfd8"/><path id="Path_10848" data-name="Path 10848" d="M1140.956 448.489a38.135 38.135 0 0 0-44.993 48.626z" transform="translate(-1042.529 43.166)" fill="#262626"/><path id="Path_10849" data-name="Path 10849" d="m1280.32 465.584-22.662-.244a5.8 5.8 0 0 1-5.048-8.584c4.1-7.323 11.311-14.253 11.311-14.253s11.24 5.571 16.4 23.081" transform="translate(-1006.242 42.016)" fill="#fff"/><path id="Path_10850" data-name="Path 10850" d="M1196.176 440.733s32.518-1.426 44.529 19.913a7.818 7.818 0 0 1 1.006 3.828 1.52 1.52 0 0 1-1.521 1.526h-24.976s-1.839-17.6-19.037-25.263" transform="translate(-1019.06 41.604)" fill="#fff"/><path id="Path_10851" data-name="Path 10851" d="M76.541 507.604a24.726 24.726 0 0 1 22.271-.371 27.3 27.3 0 0 1 14.522 17.3 43.83 43.83 0 0 1 1.066 17.807" fill="none" stroke="#000" stroke-linecap="round" stroke-linejoin="round" stroke-width="2"/><path id="Path_10858" data-name="Path 10858" d="m182.059 328.29-25.008-3.572a.722.722 0 0 0-.824.715v18.12a.723.723 0 0 0 .568.706l24.2 5.294" fill="none" stroke="#000" stroke-linecap="round" stroke-linejoin="round" stroke-width="1"/></svg>